<svg xmlns="http://www.w3.org/2000/svg" width="480pt" height="290pt" viewBox="0 0 480 290" version="1.1" xmlns:xlink="http://www.w3.org/1999/xlink">
  <g id="surface2" transform="matrix(1.095033061434937,0,0,1.095033061434937,-28.307934744384905,-4.862909406274483)" data-tpl_matrix="1,0,0,1,-0.5,-0.5">
    <path style="stroke:none;fill-rule:evenodd;fill:rgb(0.000000%,16.470588%,27.450980%);fill-opacity:1" d="M 235 112.398438 C 226.398438 104.5 220.367188 94.800781 216.898438 83.300781 C 224.800781 74.699219 234.484375 68.667969 245.949219 65.199219 C 254.582031 73.101562 260.632812 82.785156 264.101562 94.25 C 256.199219 102.882812 246.5 108.933594 235 112.398438 M 316.851562 55.75 L 280.550781 55.75 C 280.214844 61.015625 279.25 66.082031 277.648438 70.949219 C 273.316406 54.617188 264.851562 41.132812 252.25 30.5 C 239.683594 19.898438 224.734375 13.882812 207.398438 12.449219 L 207.398438 48.699219 C 212.734375 49.066406 217.816406 50.050781 222.648438 51.648438 C 206.316406 55.984375 192.832031 64.433594 182.199219 77 C 171.601562 89.601562 165.582031 104.550781 164.148438 121.851562 L 200.398438 121.851562 C 200.765625 116.550781 201.75 111.464844 203.351562 106.601562 C 207.683594 122.933594 216.132812 136.417969 228.699219 147.050781 C 241.300781 157.683594 256.25 163.714844 273.550781 165.148438 L 273.550781 128.851562 C 268.25 128.515625 263.167969 127.550781 258.300781 125.949219 C 274.632812 121.617188 288.117188 113.148438 298.75 100.550781 C 309.382812 87.984375 315.417969 73.050781 316.851562 55.75"/>
  </g>
  <g id="surface4">
    <text style="fill:rgb(0,42,70)" font-family="Volkhov" font-size="50" transform="matrix(1,0,0,1,132.3,222.3)" xml:space="preserve"><![CDATA[Affidavit]]></text>
    <text style="fill:rgb(0,42,70)" font-family="Palermo" font-size="35" transform="matrix(1,0,0,1,160.85,254.25)" xml:space="preserve"><![CDATA[Abogados]]></text>
  </g>
</svg>